<?xml version="1.0" ?><svg viewBox="0 0 64 64" xmlns="http://www.w3.org/2000/svg"><g data-name="Layer 21" id="Layer_21"><path d="M60.15,44.81l-.29-.29A5,5,0,0,0,61,41.35V8a5,5,0,0,0-5-5H8A5,5,0,0,0,3,8V41.35a5,5,0,0,0,5,5H22.39L19.15,55H14.07a1,1,0,1,0,0,2H49.93a1,1,0,1,0,0-2H44.85l-3.24-8.65h1.3L44,50.56a1,1,0,0,0,.84.73,1,1,0,0,0,1-.49l3.28-5.63,5.32,5.33a4,4,0,0,0,6.86-2.85A4,4,0,0,0,60.15,44.81Zm-5.33-5.32L59,37.06v4.29a2.93,2.93,0,0,1-.58,1.74ZM27.76,55l2-4h4.48l2,4Zm15,0H38.48l-2.73-5.45a1,1,0,0,0-.89-.55H29.14a1,1,0,0,0-.89.55L25.52,55H21.28l3.25-8.65H39.47ZM8,44.35a3,3,0,0,1-3-3V8A3,3,0,0,1,8,5H56a3,3,0,0,1,3,3V34.06L45.13,30.35l-1.89-9.46A3.66,3.66,0,0,0,39.66,18H39V16.7a7,7,0,1,0-14,0V18h-.68a3.66,3.66,0,0,0-3.58,2.93L17.89,35.26a3.65,3.65,0,0,0,3.57,4.37H41.11l1.26,4.72ZM38.57,30.14l2,7.49H21.46a1.64,1.64,0,0,1-1.61-2l2.87-14.37A1.67,1.67,0,0,1,24.34,20H25v2.35a1,1,0,0,0,2,0V20H37v2.35a1,1,0,0,0,2,0V20h.68a1.67,1.67,0,0,1,1.62,1.33L43,29.77l-3.18-.85a1,1,0,0,0-1,.26A1,1,0,0,0,38.57,30.14ZM37,18H27V16.7a5,5,0,1,1,10,0ZM58.73,49.08a2.07,2.07,0,0,1-2.85,0l-6.25-6.24a1,1,0,0,0-1.57.2l-2.72,4.68L41,31.3l16.42,4.39-4.68,2.72a1,1,0,0,0-.49.73,1,1,0,0,0,.29.84l6.24,6.24a2,2,0,0,1,0,2.86Z"/></g></svg>